<?xml version="1.0" encoding="UTF-8"?>
<svg id="Layer_2" data-name="Layer 2" xmlns="http://www.w3.org/2000/svg" viewBox="0 0 246.75 50.94">
  <defs>
    <style>
      .cls-1 {
        fill: #c3362b;
        stroke-width: 0px;
      }
    </style>
  </defs>
  <g id="Layer_1-2" data-name="Layer 1">
    <g>
      <path class="cls-1" d="m246.75,37.79H0v3.33h30.57v9.59c0,.15.13.23.4.23h5.88c.26,0,.39-.07.39-.23v-9.59h11.11v9.58c0,.15.13.23.4.23h5.88c.26,0,.39-.08.39-.23v-9.58h132.27v9.59c0,.15.13.23.4.23h5.88c.26,0,.39-.07.39-.23v-9.59h11.11v9.58c0,.15.13.23.4.23h5.88c.26,0,.39-.08.39-.23v-9.58h35.01v-3.33Z"/>
      <path class="cls-1" d="m9.81,21.12h1.07l8.02,13.13c.07.14.19.2.36.2h6.21c.17,0,.29-.06.38-.18.08-.12.08-.26-.02-.43l-8.01-13c2.32-.67,4.12-1.88,5.42-3.63,1.29-1.75,1.94-3.91,1.94-6.5,0-1.61-.26-3.08-.78-4.41-.52-1.33-1.26-2.46-2.22-3.4-.96-.94-2.09-1.66-3.4-2.17-1.31-.5-2.74-.76-4.28-.76h-4.68c-.2,0-.35.16-.35.35v5.91c0,.27.12.4.35.4h4.77c1.44,0,2.54.41,3.29,1.23.75.82,1.13,1.77,1.13,2.84,0,1.17-.38,2.18-1.13,3.01-.75.84-1.85,1.26-3.29,1.26h-4.77c-.23,0-.35.13-.35.4v5.3c0,.27.12.41.36.41Z"/>
      <path class="cls-1" d="m.41,34.46h5.86c.22,0,.4-.18.4-.4V.35c0-.23-.13-.35-.4-.35H.4c-.27,0-.4.12-.4.35v33.7c0,.22.18.41.41.41Z"/>
      <path class="cls-1" d="m83.26,34.46h5.26c.22,0,.4-.18.4-.4v-3.52L67.45.15c-.07-.1-.19-.15-.36-.15h-5c-.27,0-.41.12-.41.35v4.07l21.26,29.88c.03.1.14.15.31.15Z"/>
      <path class="cls-1" d="m88.64,25.43c.19-.07.28-.2.28-.4V.35c0-.24-.14-.35-.41-.35h-5.86c-.27,0-.41.12-.41.35v16.46l5.91,8.46c.14.17.3.22.48.15Z"/>
      <path class="cls-1" d="m62.09,34.46h5.86c.22,0,.4-.18.4-.4v-15.96l-5.91-8.41c-.14-.17-.3-.22-.48-.15-.19.07-.28.2-.28.41v24.11c0,.22.18.4.4.4Z"/>
      <path class="cls-1" d="m109.9,35.01h1.06c.48,0,.96-.05,1.42-.18,2.3-.66,4.25-1.8,5.83-3.42,1.07-1.09,1.92-2.34,2.55-3.75.64-1.41.95-2.85.95-4.33v-5.32c0-.12-.1-.22-.22-.22h-11.79c-.12,0-.22.1-.22.22v4.94c0,.22.18.41.41.41h5.34c0,.78-.17,1.48-.51,2.1-.34.62-.76,1.14-1.28,1.57-.51.43-1.06.75-1.65.98-.59.23-1.14.35-1.68.35h-.21c-.28,0-.43.14-.43.43v5.84c0,.27.14.4.41.4Z"/>
      <path class="cls-1" d="m98.39,30.88c1.03,1.07,2.25,1.94,3.66,2.59,1.41.65,2.92.98,4.54.98h.26c.27,0,.41-.13.41-.4v-5.31c0-.27-.14-.4-.4-.4h-.25c-.51,0-1.04-.12-1.62-.35-.57-.23-1.1-.56-1.59-.98-.49-.42-.89-.92-1.21-1.5-.32-.58-.48-1.23-.48-1.93v-12.11c0-.6.16-1.18.48-1.75.32-.57.72-1.08,1.21-1.53.49-.45,1.02-.82,1.59-1.1.57-.28,1.11-.43,1.62-.43h.25c.27,0,.4-.13.4-.4V.35c0-.23-.14-.35-.41-.35h-.26c-1.58,0-3.08.34-4.49,1.01-1.41.67-2.64,1.53-3.69,2.59-1.05,1.06-1.87,2.25-2.48,3.57-.6,1.33-.9,2.66-.9,4v12.02c0,1.38.3,2.73.9,4.07.6,1.34,1.42,2.55,2.45,3.62Z"/>
      <path class="cls-1" d="m109.89,6.11h.21c.51,0,1.06.12,1.65.37.58.24,1.11.58,1.6,1,.52.45.94.99,1.28,1.62.29.54.42,1.16.42,1.78v.95c0,.22.18.41.41.41h5.85c.28,0,.42-.14.42-.41v-.36c0-1.38-.3-2.74-.91-4.1-.61-1.36-1.43-2.58-2.48-3.66-1.04-1.08-2.28-1.97-3.7-2.66-1.42-.69-2.95-1.03-4.58-1.03h-.14c-.28,0-.41.11-.41.34v5.38c0,.26.14.39.41.39Z"/>
      <path class="cls-1" d="m30.97,34.46h5.86c.22,0,.4-.18.4-.4v-4.04h8.17c.11,0,.17-.13.17-.39v-5.88c0-.26-.06-.4-.17-.4h-8.17V6.67h11.11v27.38c0,.22.18.4.4.4h5.86c.22,0,.4-.18.4-.4V.35c0-.23-.13-.35-.4-.35h-23.65c-.27,0-.4.12-.4.35v33.7c0,.22.18.4.4.4Z"/>
      <path class="cls-1" d="m128.23,34.46h5.86c.22,0,.4-.18.4-.4V.35c0-.23-.13-.35-.39-.35h-5.88c-.26,0-.4.12-.4.35v33.7c0,.22.18.41.41.41Z"/>
      <path class="cls-1" d="m137.67,6.67h13.08c.22,0,.41-.18.41-.41V.36c0-.24-.13-.36-.4-.36h-13.09c-.27,0-.4.12-.4.36v5.91c0,.22.18.4.4.4Z"/>
      <rect class="cls-1" x="137.27" y="13.89" width="10.56" height="6.67" rx=".4" ry=".4"/>
      <rect class="cls-1" x="137.27" y="27.79" width="13.89" height="6.67" rx=".4" ry=".4"/>
      <g>
        <path class="cls-1" d="m166.53,21.12h1.07l8.02,13.13c.07.14.19.2.36.2h6.21c.17,0,.29-.06.38-.18.08-.12.08-.26-.02-.43l-8.01-13c2.32-.67,4.12-1.88,5.42-3.63,1.29-1.75,1.94-3.91,1.94-6.5,0-1.61-.26-3.08-.78-4.41-.52-1.33-1.26-2.46-2.22-3.4-.96-.94-2.09-1.66-3.4-2.17-1.31-.5-2.74-.76-4.28-.76h-4.68c-.2,0-.35.16-.35.35v5.91c0,.27.12.4.35.4h4.77c1.44,0,2.54.41,3.29,1.23.75.82,1.13,1.77,1.13,2.84,0,1.17-.38,2.18-1.13,3.01-.75.84-1.85,1.26-3.29,1.26h-4.77c-.23,0-.35.13-.35.4v5.3c0,.27.12.41.36.41Z"/>
        <path class="cls-1" d="m157.13,34.46h5.86c.22,0,.4-.18.4-.4V.35c0-.23-.13-.35-.4-.35h-5.87c-.27,0-.4.12-.4.35v33.7c0,.22.18.41.41.41Z"/>
      </g>
      <g>
        <path class="cls-1" d="m238.59,34.25c.07.13.18.2.35.2h7.05c.17,0,.29-.06.38-.18.08-.12.08-.26-.02-.43L223.68.2c-.07-.13-.17-.2-.3-.2h-7.05c-.17,0-.29.06-.38.18-.08.12-.08.24.03.38l22.62,33.7Z"/>
        <path class="cls-1" d="m236.2,14.13c.07.14.18.2.33.2s.26-.07.33-.2l9.12-13.58c.1-.13.12-.26.05-.38-.07-.12-.19-.18-.35-.18h-7.09c-.17,0-.29.07-.35.2l-5.57,8.31c-.07.14-.07.27,0,.41l3.55,5.22Z"/>
        <path class="cls-1" d="m215.89,34.46h7.14c.17,0,.29-.07.35-.2l5.88-8.81c.13-.13.13-.29,0-.46l-3.55-5.27c-.07-.13-.19-.19-.35-.18-.17.02-.29.09-.35.23l-9.47,14.08c-.1.17-.11.31-.03.43.08.12.21.18.38.18Z"/>
      </g>
      <path class="cls-1" d="m187.69,34.46h5.86c.22,0,.4-.18.4-.4v-4.04h8.72c.11,0,.17-.13.17-.39v-5.88c0-.26-.06-.4-.17-.4h-8.72V6.67h11.11v27.38c0,.22.18.4.4.4h5.86c.22,0,.4-.18.4-.4V.35c0-.23-.13-.35-.4-.35h-23.65c-.27,0-.4.12-.4.35v33.7c0,.22.18.4.4.4Z"/>
    </g>
  </g>
</svg>